<?xml version="1.0" standalone="no"?>
<!DOCTYPE svg PUBLIC "-//W3C//DTD SVG 20010904//EN"
 "http://www.w3.org/TR/2001/REC-SVG-20010904/DTD/svg10.dtd">
<svg version="1.0" xmlns="http://www.w3.org/2000/svg"
 width="378.000000pt" height="525.000000pt" viewBox="0 0 378.000000 525.000000"
 preserveAspectRatio="xMidYMid meet">

<g transform="translate(0.000000,525.000000) scale(0.100000,-0.100000)"
fill="#000000" stroke="none">
<path d="M0 2625 l0 -2625 1890 0 1890 0 0 2625 0 2625 -1890 0 -1890 0 0
-2625z m476 2514 c17 -14 18 -61 2 -77 -8 -8 -57 -12 -155 -12 l-143 0 0 -447
c0 -401 -2 -448 -17 -465 -22 -25 -59 -23 -77 4 -14 20 -16 84 -16 498 0 487
1 501 37 511 32 10 356 -1 369 -12z m542 -245 c26 -18 29 -56 6 -78 -12 -13
-38 -16 -120 -16 l-104 0 0 -345 0 -345 -24 -15 c-28 -19 -58 -9 -76 25 -6 11
-10 143 -10 349 l0 331 -98 0 c-101 0 -123 7 -136 43 -4 12 3 27 19 43 l24 24
248 0 c209 0 252 -2 271 -16z m441 0 c253 -75 316 -544 99 -739 -125 -112
-280 -90 -385 57 -96 133 -110 351 -32 515 36 75 112 147 178 167 60 19 77 19
140 0z m1011 -8 c49 -26 88 -64 113 -111 21 -38 22 -53 22 -280 0 -229 -1
-242 -22 -282 -29 -54 -86 -100 -147 -118 -71 -21 -283 -21 -314 1 l-22 15 0
384 0 384 23 16 c33 24 297 18 347 -9z m639 -6 c57 -28 106 -81 140 -148 40
-80 53 -134 54 -227 1 -139 -38 -252 -117 -333 -59 -62 -108 -85 -182 -86
-275 0 -405 460 -203 716 80 100 204 132 308 78z m-1941 -1256 c12 -8 22 -26
22 -40 0 -16 -79 -130 -236 -342 -130 -174 -243 -323 -252 -329 -35 -28 -56
-14 -194 130 -140 145 -155 169 -122 201 32 32 56 19 170 -95 l111 -110 212
285 c187 252 240 316 261 316 3 0 16 -7 28 -16z m2204 -191 c22 -20 23 -56 2
-77 -14 -14 -109 -16 -901 -16 -811 0 -888 1 -905 17 -22 20 -23 42 -2 71 l15
22 886 0 c811 0 888 -1 905 -17z m-861 -262 c23 -29 23 -33 1 -61 l-17 -21
-451 0 c-247 0 -457 3 -467 6 -36 15 -32 79 6 95 13 6 213 9 465 7 l444 -2 19
-24z m-1343 -637 c35 -24 27 -56 -36 -141 -32 -43 -138 -186 -236 -318 -98
-132 -185 -246 -194 -252 -33 -27 -55 -12 -193 130 -141 145 -156 169 -123
201 32 32 56 19 169 -94 l111 -111 198 268 c202 272 251 333 271 333 6 0 21
-7 33 -16z m2206 -190 c21 -20 20 -53 -1 -76 -15 -17 -57 -18 -904 -18 l-888
0 -15 22 c-20 29 -20 47 1 70 15 17 57 18 904 18 794 0 889 -2 903 -16z m-884
-244 c34 -18 44 -48 25 -76 l-15 -24 -459 0 c-442 0 -459 1 -476 20 -22 25
-13 67 18 80 32 13 883 13 907 0z m-1322 -656 c12 -8 22 -25 22 -38 0 -27
-470 -666 -500 -680 -12 -5 -27 -5 -38 0 -10 5 -77 70 -150 145 -133 137 -151
166 -120 197 31 31 61 14 173 -98 l111 -110 209 282 c116 155 218 290 228 300
21 22 36 23 65 2z m2206 -190 c21 -20 20 -53 -1 -76 -15 -17 -56 -18 -900 -18
-870 0 -883 0 -903 20 -24 24 -25 47 -3 72 15 17 57 18 904 18 794 0 889 -2
903 -16z m-864 -254 c24 -24 25 -38 4 -68 l-15 -22 -456 0 c-411 0 -458 2
-475 17 -24 21 -23 48 2 73 19 19 33 20 470 20 437 0 451 -1 470 -20z"/>
<path d="M1330 4782 c-43 -23 -95 -97 -115 -165 -47 -158 13 -361 121 -408 83
-37 152 -1 205 107 80 161 30 409 -94 467 -45 22 -74 21 -117 -1z"/>
<path d="M2207 4779 c-8 -30 -9 -518 -1 -556 l7 -33 91 0 c107 0 149 17 178
71 16 29 18 59 18 234 0 170 -3 205 -18 235 -26 53 -70 70 -178 70 -85 0 -92
-2 -97 -21z"/>
<path d="M2954 4786 c-43 -19 -100 -90 -121 -150 -24 -70 -24 -213 0 -283 23
-65 86 -138 134 -154 78 -25 160 35 204 150 31 79 30 214 -1 294 -26 69 -72
125 -117 143 -40 17 -59 17 -99 0z"/>
</g>
</svg>
